<svg xmlns="http://www.w3.org/2000/svg" xmlns:xlink="http://www.w3.org/1999/xlink" width="500" zoomAndPan="magnify" viewBox="0 0 375 374.999991" height="500" preserveAspectRatio="xMidYMid meet" version="1.0"><defs><clipPath id="2f96511514"><path d="M 272 73 L 328.777344 73 L 328.777344 133 L 272 133 Z M 272 73 " clip-rule="nonzero"/></clipPath><clipPath id="e18eacff1a"><path d="M 267 72 L 328.777344 72 L 328.777344 78 L 267 78 Z M 267 72 " clip-rule="nonzero"/></clipPath><clipPath id="77bd95a657"><path d="M 266 117 L 328.777344 117 L 328.777344 133 L 266 133 Z M 266 117 " clip-rule="nonzero"/></clipPath><clipPath id="e460a1ed6c"><path d="M 134 305 L 139.941406 305 L 139.941406 312.894531 L 134 312.894531 Z M 134 305 " clip-rule="nonzero"/></clipPath></defs><path fill="#ffddc0" d="M 275.425781 77.890625 C 275.425781 77.890625 183.925781 75.800781 150.109375 76.269531 L 131.992188 69.039062 C 118.445312 67.992188 99.992188 63.171875 99.992188 63.171875 C 92.351562 63.902344 97.695312 71.066406 97.695312 71.066406 C 102.351562 75.460938 114.003906 77.589844 114.003906 77.589844 L 108.222656 77.179688 C 108.222656 77.179688 78.957031 79.269531 65.132812 77.003906 C 60.726562 76.28125 57.261719 82.84375 63.996094 87.039062 C 71.351562 91.617188 99.078125 91.285156 99.078125 91.285156 C 99.078125 91.285156 66.59375 99.34375 55 99.710938 C 48.226562 99.921875 46.042969 105.394531 51.03125 109.957031 C 53.695312 112.394531 58.621094 117.457031 96.382812 111.359375 C 96.382812 111.359375 120.671875 110.027344 129.253906 107.664062 C 129.253906 107.664062 115.488281 134.515625 117.136719 138.621094 C 119.894531 145.507812 131.851562 168.304688 131.851562 168.304688 C 132.179688 180.25 139.898438 180.03125 139.898438 180.03125 C 139.898438 180.03125 137.339844 174.210938 138.214844 168.386719 C 139.09375 162.5625 143.410156 156.742188 143.410156 156.742188 C 143.410156 156.742188 138.425781 141.597656 136.25 138.242188 C 136.25 138.242188 144.785156 125.308594 151.011719 121.621094 C 151.011719 121.621094 156.640625 118.070312 160.078125 120.859375 C 163.515625 123.648438 164.757812 132.78125 164.757812 132.78125 C 160.359375 140.703125 145.15625 154.230469 145.15625 154.230469 C 145.15625 154.230469 139.320312 163.195312 138.589844 169.5 C 137.855469 175.804688 141.101562 180.824219 141.101562 180.824219 C 141.101562 180.824219 145.511719 183.46875 149.546875 179.613281 C 152.628906 176.667969 155.058594 171.03125 155.058594 171.03125 C 164.667969 163.6875 174.355469 155.992188 190.316406 147.339844 C 193.425781 145.652344 203.59375 142.867188 218.285156 135.285156 C 218.285156 135.285156 237.832031 118.8125 249.09375 117.011719 C 254.925781 116.082031 277.421875 118.011719 277.421875 118.011719 C 277.421875 118.011719 277.847656 107.859375 277.671875 98.144531 C 277.460938 86.699219 275.425781 77.890625 275.425781 77.890625 " fill-opacity="1" fill-rule="nonzero"/><path fill="#dcdede" d="M 275.125 77.929688 L 267.953125 77.746094 C 267.953125 77.746094 269.382812 74.132812 271.28125 74.203125 C 273.183594 74.273438 275.125 77.929688 275.125 77.929688 " fill-opacity="1" fill-rule="nonzero"/><path fill="#dcdede" d="M 266.878906 117.8125 L 277.382812 118.207031 C 277.382812 118.207031 276.714844 131.777344 273.28125 131.757812 C 267.074219 131.722656 266.878906 117.8125 266.878906 117.8125 " fill-opacity="1" fill-rule="nonzero"/><g clip-path="url(#2f96511514)"><path fill="#efefef" d="M 328.589844 73.003906 L 272.816406 74.148438 L 275.28125 77.820312 C 278.082031 91.425781 277.902344 112.402344 276.4375 127.242188 L 274.199219 132.503906 L 328.292969 132.261719 L 328.589844 73.003906 " fill-opacity="1" fill-rule="nonzero"/></g><path fill="#000000" d="M 115.40625 78.554688 C 115.367188 78.554688 115.332031 78.550781 115.292969 78.542969 C 114.734375 78.4375 101.507812 75.847656 97.738281 71.691406 C 95.570312 69.304688 94.859375 66.355469 96.015625 64.53125 C 96.703125 63.441406 98.648438 61.84375 103.886719 63.429688 C 109.503906 65.125 128.3125 67.972656 131.0625 68.332031 C 132.191406 68.480469 134.6875 69.582031 137.851562 70.980469 C 142.519531 73.039062 148.902344 75.863281 151.757812 75.75 C 181.375 74.628906 274.121094 77.3125 275.054688 77.339844 C 275.375 77.351562 275.628906 77.617188 275.621094 77.941406 C 275.609375 78.261719 275.347656 78.53125 275.019531 78.503906 C 274.089844 78.476562 181.378906 75.792969 151.804688 76.914062 C 148.699219 77.039062 142.421875 74.269531 137.382812 72.042969 C 134.550781 70.792969 131.875 69.613281 130.910156 69.488281 C 128.148438 69.125 109.230469 66.257812 103.550781 64.542969 C 100.261719 63.550781 97.871094 63.773438 97 65.15625 C 96.136719 66.515625 96.808594 68.9375 98.601562 70.910156 C 102.109375 74.78125 115.382812 77.375 115.515625 77.402344 C 115.832031 77.460938 116.039062 77.765625 115.976562 78.082031 C 115.925781 78.363281 115.679688 78.554688 115.40625 78.554688 " fill-opacity="1" fill-rule="nonzero"/><path fill="#000000" d="M 156.882812 120.558594 C 156.726562 120.558594 156.5625 120.5625 156.394531 120.570312 C 154.160156 120.671875 151.8125 121.402344 151.050781 122.234375 C 150.550781 122.785156 149.617188 123.703125 148.4375 124.859375 C 144.9375 128.285156 136.746094 136.308594 137.21875 138.496094 C 137.570312 140.125 138.667969 142.53125 139.835938 145.082031 C 141.414062 148.542969 143.1875 152.425781 143.660156 155.5625 C 143.988281 155.070312 144.332031 154.570312 144.6875 154.066406 C 145.613281 152.738281 148.269531 150.242188 151.34375 147.351562 C 156.441406 142.5625 162.785156 136.597656 163.929688 133.464844 C 164.925781 130.75 161.6875 123.15625 159.546875 121.191406 C 159.105469 120.785156 158.128906 120.558594 156.882812 120.558594 Z M 144.308594 182.25 C 144 182.25 143.691406 182.226562 143.386719 182.171875 C 140.796875 181.738281 138.921875 179.53125 138.101562 175.960938 C 136.523438 169.089844 138.523438 163.535156 142.769531 156.917969 C 142.671875 156.820312 142.609375 156.691406 142.601562 156.542969 C 142.390625 153.484375 140.46875 149.277344 138.773438 145.566406 C 137.585938 142.957031 136.457031 140.492188 136.082031 138.742188 C 135.519531 136.140625 141.21875 130.296875 147.621094 124.027344 C 148.789062 122.882812 149.714844 121.976562 150.191406 121.453125 C 151.292969 120.242188 154.121094 119.507812 156.34375 119.40625 C 157.640625 119.347656 159.382812 119.460938 160.332031 120.335938 C 162.605469 122.414062 166.285156 130.425781 165.023438 133.867188 C 163.78125 137.257812 157.328125 143.324219 152.140625 148.199219 C 149.113281 151.042969 146.5 153.5 145.640625 154.730469 C 140.296875 162.398438 137.535156 168.289062 139.234375 175.699219 C 139.945312 178.78125 141.484375 180.675781 143.578125 181.027344 C 146.054688 181.445312 148.988281 179.597656 151.042969 176.316406 C 151.753906 175.1875 152.304688 174.292969 152.753906 173.566406 C 154.703125 170.402344 154.742188 170.355469 156.796875 168.566406 L 157.246094 168.167969 C 162.675781 163.425781 188.289062 147.148438 192.386719 145.84375 C 198.015625 144.054688 211.667969 138.355469 216.019531 135.804688 C 218.058594 134.609375 220.289062 132.890625 222.875 130.90625 C 228.675781 126.441406 235.898438 120.886719 246.265625 117 C 249.445312 115.808594 259.199219 116.460938 267.804688 117.042969 C 271.417969 117.28125 274.535156 117.492188 276.640625 117.523438 C 276.960938 117.527344 277.214844 117.792969 277.210938 118.113281 C 277.207031 118.4375 276.976562 118.707031 276.621094 118.6875 C 274.484375 118.65625 271.351562 118.445312 267.726562 118.199219 C 259.660156 117.660156 249.617188 116.988281 246.675781 118.089844 C 236.46875 121.914062 229.324219 127.410156 223.582031 131.828125 C 220.972656 133.835938 218.710938 135.574219 216.605469 136.808594 C 212.113281 139.445312 198.546875 145.105469 192.742188 146.953125 C 188.84375 148.191406 163.207031 164.503906 158.015625 169.046875 L 157.558594 169.441406 C 155.617188 171.136719 155.617188 171.136719 153.746094 174.175781 C 153.292969 174.902344 152.738281 175.804688 152.03125 176.933594 C 149.925781 180.289062 147.039062 182.25 144.308594 182.25 " fill-opacity="1" fill-rule="nonzero"/><path fill="#000000" d="M 138.675781 180.171875 C 138.628906 180.171875 138.582031 180.167969 138.535156 180.15625 C 134.691406 179.199219 132.675781 176.257812 131.355469 169.660156 C 131.003906 167.914062 128.441406 163.113281 125.730469 158.03125 C 121.90625 150.855469 117.566406 142.726562 116.671875 138.320312 C 115.695312 133.542969 124.230469 116.351562 131.089844 102.542969 C 133.183594 98.320312 134.992188 94.671875 136.242188 91.957031 C 139.191406 85.535156 143.71875 82.496094 150.914062 82.101562 C 151.226562 82.089844 151.507812 82.332031 151.527344 82.652344 C 151.542969 82.972656 151.296875 83.246094 150.976562 83.261719 C 144.265625 83.632812 140.046875 86.464844 137.300781 92.441406 C 136.046875 95.175781 134.230469 98.828125 132.128906 103.058594 C 125.710938 115.992188 116.917969 133.699219 117.808594 138.089844 C 118.671875 142.328125 122.96875 150.378906 126.757812 157.480469 C 129.628906 162.867188 132.109375 167.515625 132.496094 169.433594 C 133.730469 175.585938 135.441406 178.1875 138.816406 179.027344 C 139.128906 179.101562 139.320312 179.417969 139.242188 179.730469 C 139.175781 179.996094 138.9375 180.171875 138.675781 180.171875 " fill-opacity="1" fill-rule="nonzero"/><path fill="#000000" d="M 66.222656 114.726562 C 62.347656 114.726562 58.863281 114.457031 56.328125 113.75 C 50.027344 111.992188 47.257812 107.320312 47.851562 103.816406 C 48.257812 101.390625 50.457031 98.910156 55.398438 99.214844 C 63.910156 99.753906 90.34375 92.667969 93.074219 91.847656 C 94.3125 91.476562 98.300781 90.773438 103.828125 89.796875 C 111.066406 88.519531 120.980469 86.769531 129.332031 84.921875 C 140.347656 82.480469 144.621094 83.1875 144.796875 83.21875 C 145.113281 83.277344 145.324219 83.578125 145.269531 83.894531 C 145.214844 84.210938 144.914062 84.425781 144.59375 84.363281 C 144.554688 84.359375 140.3125 83.683594 129.585938 86.054688 C 121.207031 87.910156 111.277344 89.664062 104.03125 90.941406 C 98.753906 91.875 94.582031 92.613281 93.410156 92.960938 C 90.203125 93.925781 64.078125 100.929688 55.328125 100.378906 C 51.785156 100.15625 49.417969 101.515625 48.996094 104.011719 C 48.488281 107.011719 50.996094 111.054688 56.640625 112.628906 C 65.351562 115.058594 85.9375 112.148438 93.6875 111.054688 C 94.984375 110.871094 95.929688 110.738281 96.414062 110.6875 C 97.660156 110.554688 99.574219 110.410156 101.996094 110.226562 C 109.746094 109.640625 122.71875 108.664062 129.238281 106.71875 C 129.542969 106.625 129.871094 106.800781 129.960938 107.109375 C 130.050781 107.417969 129.878906 107.742188 129.570312 107.832031 C 122.929688 109.8125 109.878906 110.800781 102.085938 111.386719 C 99.671875 111.570312 97.765625 111.710938 96.539062 111.84375 C 96.0625 111.894531 95.128906 112.027344 93.851562 112.207031 C 88.25 112.996094 76.003906 114.726562 66.222656 114.726562 " fill-opacity="1" fill-rule="nonzero"/><path fill="#000000" d="M 96.710938 92.058594 C 96.683594 92.058594 96.652344 92.058594 96.617188 92.054688 C 94.429688 91.707031 91.132812 91.503906 87.320312 91.269531 C 79.636719 90.796875 70.078125 90.210938 64.859375 88.046875 C 61.410156 86.621094 59.195312 82.917969 60.019531 79.964844 C 60.390625 78.632812 61.960938 75.640625 68.507812 76.640625 C 74.257812 77.519531 88.066406 77.527344 107.394531 76.664062 L 107.933594 76.636719 C 108.949219 76.597656 112.546875 77.039062 117.511719 77.660156 C 123.125 78.355469 130.109375 79.226562 135.800781 79.671875 C 140.160156 80.011719 156.042969 78.03125 156.203125 78.011719 C 156.523438 77.972656 156.8125 78.199219 156.851562 78.515625 C 156.890625 78.835938 156.667969 79.128906 156.347656 79.167969 C 155.6875 79.25 140.191406 81.183594 135.710938 80.832031 C 129.992188 80.382812 122.992188 79.515625 117.367188 78.8125 C 112.828125 78.25 108.917969 77.761719 107.984375 77.800781 L 107.445312 77.824219 C 88.046875 78.691406 74.15625 78.683594 68.332031 77.789062 C 64.371094 77.183594 61.75 78.09375 61.140625 80.28125 C 60.539062 82.429688 62.066406 85.632812 65.300781 86.972656 C 70.34375 89.0625 79.796875 89.644531 87.390625 90.109375 C 91.238281 90.347656 94.558594 90.550781 96.800781 90.90625 C 97.117188 90.953125 97.335938 91.253906 97.285156 91.570312 C 97.238281 91.855469 96.992188 92.058594 96.710938 92.058594 " fill-opacity="1" fill-rule="nonzero"/><g clip-path="url(#e18eacff1a)"><path fill="#000000" d="M 268.234375 78 C 268.203125 78 268.171875 78 268.136719 77.996094 C 267.824219 77.941406 267.605469 77.640625 267.660156 77.324219 C 267.863281 76.085938 269.109375 73.6875 272.359375 73.484375 C 277.964844 73.136719 290.355469 73.011719 302.339844 72.894531 C 312.121094 72.800781 322.238281 72.699219 328.175781 72.476562 C 328.507812 72.464844 328.769531 72.714844 328.777344 73.035156 C 328.789062 73.355469 328.539062 73.628906 328.21875 73.640625 C 322.269531 73.863281 312.140625 73.960938 302.347656 74.058594 C 290.382812 74.175781 278.007812 74.296875 272.429688 74.644531 C 269.285156 74.84375 268.824219 77.40625 268.808594 77.515625 C 268.761719 77.800781 268.515625 78 268.234375 78 " fill-opacity="1" fill-rule="nonzero"/></g><g clip-path="url(#77bd95a657)"><path fill="#000000" d="M 298.246094 133 C 288.984375 133 279.613281 132.925781 273.570312 132.6875 C 272.097656 132.628906 270.828125 132.027344 269.796875 130.898438 C 266.289062 127.058594 266.695312 118.296875 266.714844 117.925781 C 266.734375 117.605469 267.035156 117.367188 267.328125 117.375 C 267.648438 117.386719 267.894531 117.664062 267.878906 117.984375 C 267.875 118.070312 267.476562 126.632812 270.660156 130.113281 C 271.480469 131.015625 272.449219 131.476562 273.617188 131.523438 C 289.265625 132.140625 327.351562 131.652344 327.734375 131.644531 C 328.035156 131.652344 328.316406 131.898438 328.324219 132.21875 C 328.328125 132.539062 328.070312 132.804688 327.75 132.808594 C 327.511719 132.8125 313.023438 133 298.246094 133 " fill-opacity="1" fill-rule="nonzero"/></g><path fill="#000000" d="M 273.375 132.621094 C 273.289062 132.621094 273.199219 132.613281 273.113281 132.601562 C 272.792969 132.5625 272.570312 132.269531 272.609375 131.953125 C 272.648438 131.632812 272.933594 131.410156 273.261719 131.449219 C 273.445312 131.472656 273.730469 131.464844 274.089844 131.128906 C 277.449219 127.984375 277.300781 107.984375 276.871094 101.058594 C 276.800781 99.945312 276.753906 98.546875 276.703125 96.925781 C 276.472656 89.648438 276.046875 76.097656 271.816406 74.753906 C 271.507812 74.65625 271.339844 74.328125 271.4375 74.023438 C 271.535156 73.71875 271.863281 73.546875 272.167969 73.644531 C 277.183594 75.238281 277.597656 88.269531 277.867188 96.890625 C 277.917969 98.5 277.960938 99.890625 278.03125 100.984375 C 278.046875 101.25 279.40625 127.746094 274.886719 131.980469 C 274.4375 132.398438 273.917969 132.621094 273.375 132.621094 " fill-opacity="1" fill-rule="nonzero"/><path fill="#efefef" d="M 135.949219 312.195312 C 133.621094 310.234375 134.695312 303.78125 137.886719 306.171875 C 138.5625 306.675781 139.207031 311.261719 138.660156 311.808594 C 138.285156 312.179688 136.332031 312.515625 135.949219 312.195312 " fill-opacity="1" fill-rule="nonzero"/><path fill="#efefef" d="M 134.613281 284.160156 C 132.3125 284.332031 131.191406 280.234375 133.949219 279.683594 C 135.363281 279.402344 138.714844 281.332031 137.046875 283 C 136.375 283.667969 135.5625 284.089844 134.613281 284.160156 " fill-opacity="1" fill-rule="nonzero"/><path fill="#efefef" d="M 122.582031 294.90625 C 122.582031 297.234375 125.941406 298.578125 127.113281 296.230469 L 122.582031 294.90625 " fill-opacity="1" fill-rule="nonzero"/><path fill="#efefef" d="M 135.875 220.546875 C 134.457031 220.546875 132.421875 219.925781 133.550781 217.898438 C 133.675781 217.671875 135.207031 216.074219 135.207031 217.121094 L 135.875 220.546875 " fill-opacity="1" fill-rule="nonzero"/><path fill="#efefef" d="M 128.550781 259.445312 C 127.800781 259.945312 126.132812 262.960938 126.890625 263.972656 C 127.113281 264.269531 127.707031 264.195312 128 264.195312 C 129.4375 264.195312 129.65625 263.566406 129.65625 262.316406 L 128.550781 259.445312 " fill-opacity="1" fill-rule="nonzero"/><path fill="#efefef" d="M 140.523438 251.054688 C 139.789062 250.6875 139.699219 251.761719 140.191406 252.378906 C 141.316406 253.785156 142.675781 252.683594 143.730469 252.160156 L 140.523438 251.054688 " fill-opacity="1" fill-rule="nonzero"/><path fill="#efefef" d="M 142.449219 235.285156 C 140.847656 235.074219 140.3125 233.035156 142.121094 233.292969 C 143.257812 233.457031 144.460938 235.542969 142.449219 235.285156 " fill-opacity="1" fill-rule="nonzero"/><path fill="#efefef" d="M 131.078125 239.761719 C 130.605469 239.761719 129.84375 242.714844 130.195312 243.300781 C 130.898438 244.472656 132.496094 243.519531 133.289062 243.519531 L 131.078125 239.761719 " fill-opacity="1" fill-rule="nonzero"/><path fill="#efefef" d="M 125.496094 214.203125 C 123.859375 213.386719 123.8125 216.890625 124.390625 217.851562 C 125.898438 220.363281 128.730469 218.019531 127.597656 215.753906 L 125.496094 214.203125 " fill-opacity="1" fill-rule="nonzero"/><path fill="#efefef" d="M 139.484375 199.328125 C 137.808594 199.328125 137.417969 204.066406 138.707031 203.417969 L 139.484375 199.328125 " fill-opacity="1" fill-rule="nonzero"/><path fill="#efefef" d="M 132.960938 226.816406 C 132.632812 226.570312 132.324219 226.152344 131.914062 226.152344 C 131.898438 226.152344 131.839844 229.320312 132.136719 229.691406 C 132.632812 230.3125 134.003906 229.371094 134.347656 228.914062 C 134.890625 228.1875 133.1875 226.980469 132.960938 226.816406 " fill-opacity="1" fill-rule="nonzero"/><path fill="#efefef" d="M 138.382812 213.054688 C 136.667969 212.546875 138.648438 211.050781 139.652344 211.453125 C 140.832031 211.925781 140.214844 212.78125 139.320312 212.890625 C 139.003906 212.925781 138.6875 213.148438 138.382812 213.054688 " fill-opacity="1" fill-rule="nonzero"/><path fill="#efefef" d="M 132.023438 203.382812 C 131.3125 203.027344 132.375 203.625 131.691406 202.941406 C 131.535156 202.785156 131.625 203.386719 131.582031 203.605469 C 131.449219 204.273438 131.472656 203.652344 131.472656 204.160156 C 131.472656 204.613281 131.28125 206.066406 131.691406 206.480469 C 131.953125 206.738281 132.484375 206.535156 132.796875 206.589844 C 133.964844 206.785156 133.679688 206.535156 133.679688 205.375 L 132.023438 203.382812 " fill-opacity="1" fill-rule="nonzero"/><path fill="#efefef" d="M 132.410156 195.8125 C 131.019531 195.890625 130 190.972656 133.679688 192.441406 C 134.082031 192.601562 134.085938 193.136719 134.234375 193.4375 C 134.554688 194.082031 136.078125 195.054688 135.894531 195.980469 C 135.628906 197.304688 133.277344 195.761719 132.410156 195.8125 " fill-opacity="1" fill-rule="nonzero"/><path fill="#efefef" d="M 129.09375 191.722656 C 129.117188 191.257812 129.152344 191.257812 129.257812 192.109375 C 129.277344 192.253906 129.296875 192.695312 129.257812 192.554688 C 129.183594 192.277344 129.082031 192.003906 129.09375 191.722656 " fill-opacity="1" fill-rule="nonzero"/><path fill="#efefef" d="M 134.125 184.703125 C 133.644531 183.746094 133.128906 188.152344 133.128906 188.792969 C 133.128906 188.976562 132.953125 189.304688 133.128906 189.347656 C 133.46875 189.433594 133.71875 189.074219 134.015625 189.015625 C 135.578125 188.703125 135.007812 188.117188 135.007812 186.914062 L 134.125 184.703125 " fill-opacity="1" fill-rule="nonzero"/><path fill="#efefef" d="M 137.441406 188.90625 L 137.21875 188.792969 L 137.21875 189.679688 L 136.996094 190.011719 L 136.996094 190.230469 L 136.886719 190.449219 L 137.109375 190.5625 L 137.441406 190.5625 L 137.660156 190.449219 L 137.441406 188.90625 " fill-opacity="1" fill-rule="nonzero"/><path fill="#efefef" d="M 139.339844 179.246094 L 137.347656 179.855469 L 136.90625 181.726562 L 137.800781 182.613281 L 140.632812 180.972656 L 139.339844 179.246094 " fill-opacity="1" fill-rule="nonzero"/><path fill="#efefef" d="M 138.753906 164.203125 L 136.441406 164.773438 L 136.339844 168.625 L 137.78125 169.0625 L 138.753906 164.203125 " fill-opacity="1" fill-rule="nonzero"/><path fill="#efefef" d="M 137.414062 171.273438 L 138.015625 175.089844 L 135.804688 172.8125 Z M 137.414062 171.273438 " fill-opacity="1" fill-rule="nonzero"/><g clip-path="url(#e460a1ed6c)"><path fill="#000000" d="M 136.289062 311.71875 C 136.640625 311.824219 137.875 311.621094 138.21875 311.410156 C 138.480469 310.6875 137.964844 307.117188 137.515625 306.617188 C 136.492188 305.855469 136.058594 306.40625 135.894531 306.613281 C 134.984375 307.753906 135.042969 310.621094 136.289062 311.71875 Z M 136.628906 312.894531 C 136.183594 312.894531 135.792969 312.820312 135.574219 312.640625 C 133.769531 311.121094 133.710938 307.488281 134.984375 305.886719 C 135.800781 304.859375 137.015625 304.792969 138.234375 305.707031 C 139.15625 306.398438 139.414062 309.902344 139.417969 309.9375 C 139.53125 311.539062 139.292969 312 139.070312 312.21875 C 138.714844 312.574219 137.554688 312.894531 136.628906 312.894531 " fill-opacity="1" fill-rule="nonzero"/></g><path fill="#000000" d="M 134.273438 280.234375 C 134.195312 280.234375 134.125 280.242188 134.0625 280.253906 C 132.867188 280.492188 132.871094 281.503906 132.925781 281.925781 C 133.046875 282.792969 133.695312 283.644531 134.570312 283.578125 C 135.339844 283.523438 136.035156 283.1875 136.632812 282.585938 C 136.941406 282.28125 136.996094 282.003906 136.8125 281.660156 C 136.40625 280.898438 135.058594 280.234375 134.273438 280.234375 Z M 134.472656 284.746094 C 133.007812 284.746094 131.960938 283.425781 131.773438 282.085938 C 131.605469 280.84375 132.175781 279.445312 133.835938 279.113281 C 135.003906 278.882812 137.125 279.777344 137.839844 281.113281 C 138.265625 281.90625 138.125 282.742188 137.457031 283.410156 C 136.652344 284.214844 135.710938 284.660156 134.65625 284.742188 C 134.59375 284.746094 134.53125 284.746094 134.472656 284.746094 " fill-opacity="1" fill-rule="nonzero"/><path fill="#000000" d="M 125.21875 298.042969 C 124.988281 298.042969 124.753906 298.015625 124.515625 297.957031 C 123.261719 297.664062 122 296.519531 122 294.90625 C 122 294.585938 122.257812 294.324219 122.582031 294.324219 C 122.902344 294.324219 123.164062 294.585938 123.164062 294.90625 C 123.164062 295.914062 123.976562 296.636719 124.78125 296.824219 C 125.152344 296.914062 126.074219 297.007812 126.59375 295.972656 C 126.738281 295.683594 127.085938 295.570312 127.375 295.710938 C 127.660156 295.855469 127.777344 296.207031 127.632812 296.492188 C 127.136719 297.484375 126.246094 298.042969 125.21875 298.042969 " fill-opacity="1" fill-rule="nonzero"/><path fill="#000000" d="M 135.875 221.128906 C 135.34375 221.128906 133.570312 221.039062 132.882812 219.871094 C 132.625 219.4375 132.445312 218.6875 133.042969 217.613281 C 133.050781 217.597656 134.246094 215.96875 135.1875 216.210938 C 135.328125 216.25 135.789062 216.425781 135.789062 217.121094 C 135.789062 217.441406 135.53125 217.703125 135.207031 217.703125 C 135.03125 217.703125 134.875 217.625 134.765625 217.5 C 134.496094 217.707031 134.148438 218.050781 134.046875 218.203125 C 133.792969 218.652344 133.738281 219.027344 133.886719 219.28125 C 134.125 219.683594 134.941406 219.964844 135.875 219.964844 C 136.195312 219.964844 136.457031 220.226562 136.457031 220.546875 C 136.457031 220.867188 136.195312 221.128906 135.875 221.128906 " fill-opacity="1" fill-rule="nonzero"/><path fill="#000000" d="M 127.632812 264.785156 C 127.242188 264.785156 126.730469 264.730469 126.425781 264.324219 C 126.136719 263.9375 126.050781 263.398438 126.164062 262.714844 C 126.410156 261.292969 127.523438 259.429688 128.226562 258.957031 C 128.496094 258.78125 128.859375 258.851562 129.035156 259.121094 C 129.214844 259.386719 129.140625 259.75 128.875 259.925781 C 128.484375 260.1875 127.515625 261.734375 127.3125 262.910156 C 127.226562 263.40625 127.328125 263.582031 127.359375 263.625 C 127.402344 263.632812 127.703125 263.621094 127.828125 263.617188 L 128 263.613281 C 128.945312 263.613281 129.074219 263.457031 129.074219 262.316406 C 129.074219 261.996094 129.335938 261.734375 129.65625 261.734375 C 129.976562 261.734375 130.238281 261.996094 130.238281 262.316406 C 130.238281 263.507812 130.066406 264.777344 128 264.777344 L 127.867188 264.78125 C 127.796875 264.78125 127.71875 264.785156 127.632812 264.785156 " fill-opacity="1" fill-rule="nonzero"/><path fill="#000000" d="M 140.226562 251.558594 Z M 141.453125 253.644531 C 140.871094 253.644531 140.277344 253.417969 139.738281 252.746094 C 139.238281 252.121094 139.152344 251.21875 139.550781 250.730469 C 139.773438 250.449219 140.21875 250.25 140.785156 250.535156 C 141.074219 250.679688 141.1875 251.027344 141.042969 251.316406 C 140.933594 251.535156 140.707031 251.648438 140.476562 251.636719 C 140.496094 251.753906 140.550781 251.894531 140.648438 252.015625 C 141.238281 252.757812 141.808594 252.550781 142.972656 251.90625 C 143.144531 251.808594 143.308594 251.71875 143.46875 251.636719 C 143.753906 251.496094 144.105469 251.613281 144.25 251.898438 C 144.394531 252.1875 144.277344 252.535156 143.988281 252.679688 C 143.84375 252.75 143.695312 252.835938 143.535156 252.925781 C 142.992188 253.226562 142.234375 253.644531 141.453125 253.644531 " fill-opacity="1" fill-rule="nonzero"/><path fill="#000000" d="M 142.527344 234.707031 C 142.75 234.738281 142.878906 234.722656 142.945312 234.707031 C 142.886719 234.457031 142.449219 233.929688 142.039062 233.871094 C 141.71875 233.820312 141.585938 233.882812 141.570312 233.902344 C 141.5625 233.914062 141.554688 234.011719 141.644531 234.160156 C 141.773438 234.386719 142.070312 234.648438 142.527344 234.707031 Z M 142.773438 235.886719 C 142.652344 235.886719 142.519531 235.878906 142.375 235.859375 C 141.542969 235.75 140.816406 235.226562 140.527344 234.519531 C 140.324219 234.03125 140.371094 233.542969 140.652344 233.1875 C 140.832031 232.953125 141.273438 232.582031 142.203125 232.71875 C 143.234375 232.863281 144.226562 234.019531 144.101562 234.929688 C 144.070312 235.167969 143.878906 235.886719 142.773438 235.886719 " fill-opacity="1" fill-rule="nonzero"/><path fill="#000000" d="M 131.292969 244.460938 C 130.699219 244.460938 130.101562 244.273438 129.695312 243.597656 C 129.222656 242.8125 129.859375 240.503906 130.277344 239.765625 C 130.359375 239.621094 130.609375 239.179688 131.078125 239.179688 C 131.402344 239.179688 131.664062 239.441406 131.664062 239.761719 C 131.664062 240 131.519531 240.203125 131.3125 240.292969 C 130.992188 240.75 130.570312 242.617188 130.707031 243.03125 C 130.9375 243.402344 131.371094 243.363281 132.316406 243.113281 C 132.664062 243.023438 132.992188 242.941406 133.289062 242.941406 C 133.613281 242.941406 133.871094 243.199219 133.871094 243.519531 C 133.871094 243.839844 133.613281 244.101562 133.289062 244.101562 C 133.144531 244.101562 132.871094 244.171875 132.613281 244.242188 C 132.246094 244.335938 131.773438 244.460938 131.292969 244.460938 " fill-opacity="1" fill-rule="nonzero"/><path fill="#000000" d="M 126 219.511719 C 125.261719 219.511719 124.476562 219.125 123.890625 218.152344 C 123.34375 217.238281 123.242188 214.851562 124.105469 213.917969 C 124.53125 213.457031 125.132812 213.371094 125.757812 213.683594 C 126.042969 213.828125 126.160156 214.179688 126.015625 214.464844 C 125.871094 214.753906 125.523438 214.867188 125.234375 214.726562 C 125.035156 214.625 124.996094 214.667969 124.957031 214.710938 C 124.535156 215.167969 124.550781 216.988281 124.890625 217.550781 C 125.332031 218.292969 125.917969 218.535156 126.492188 218.21875 C 127.128906 217.871094 127.535156 216.925781 127.074219 216.011719 C 126.933594 215.722656 127.046875 215.375 127.335938 215.230469 C 127.625 215.089844 127.972656 215.207031 128.117188 215.492188 C 128.894531 217.046875 128.1875 218.617188 127.054688 219.238281 C 126.738281 219.410156 126.375 219.511719 126 219.511719 " fill-opacity="1" fill-rule="nonzero"/><path fill="#000000" d="M 138.644531 202.964844 L 138.652344 202.964844 Z M 138.480469 204.0625 C 138.25 204.0625 138.03125 203.976562 137.851562 203.816406 C 137.128906 203.160156 137.308594 201.355469 137.714844 200.304688 C 138.105469 199.300781 138.730469 198.746094 139.484375 198.746094 C 139.804688 198.746094 140.066406 199.007812 140.066406 199.328125 C 140.066406 199.648438 139.804688 199.910156 139.484375 199.910156 C 139.214844 199.910156 138.984375 200.324219 138.898438 200.5 C 138.496094 201.328125 138.457031 202.449219 138.589844 202.851562 C 138.835938 202.804688 139.105469 202.921875 139.222656 203.160156 C 139.367188 203.449219 139.257812 203.796875 138.96875 203.941406 C 138.808594 204.019531 138.640625 204.0625 138.480469 204.0625 " fill-opacity="1" fill-rule="nonzero"/><path fill="#000000" d="M 131.679688 226.523438 L 131.683594 226.523438 Z M 132.300781 227.160156 C 132.363281 227.9375 132.492188 229.117188 132.617188 229.371094 C 132.789062 229.371094 133.613281 228.921875 133.878906 228.570312 C 133.867188 228.570312 133.816406 228.164062 132.652344 227.3125 C 132.652344 227.308594 132.617188 227.28125 132.617188 227.28125 C 132.566406 227.246094 132.472656 227.195312 132.300781 227.160156 Z M 132.605469 230.480469 C 132.226562 230.480469 131.898438 230.328125 131.679688 230.054688 C 131.292969 229.570312 131.003906 226.585938 131.152344 226.273438 C 131.25 226.070312 131.453125 225.945312 131.679688 225.945312 C 132.410156 225.945312 132.941406 226.074219 133.3125 226.351562 L 132.960938 226.816406 L 133.34375 226.375 C 134.382812 227.136719 134.933594 227.804688 135.023438 228.414062 C 135.066406 228.726562 134.992188 229.019531 134.8125 229.265625 C 134.492188 229.691406 133.488281 230.464844 132.632812 230.480469 C 132.621094 230.480469 132.617188 230.480469 132.605469 230.480469 " fill-opacity="1" fill-rule="nonzero"/><path fill="#000000" d="M 138.328125 212.410156 C 138.371094 212.4375 138.4375 212.464844 138.539062 212.496094 C 138.585938 212.496094 138.703125 212.457031 138.785156 212.429688 C 138.941406 212.378906 139.097656 212.332031 139.25 212.3125 C 139.46875 212.285156 139.625 212.195312 139.6875 212.128906 C 139.644531 212.09375 139.566406 212.046875 139.433594 211.992188 C 139.308594 211.941406 139.046875 211.957031 138.742188 212.101562 C 138.519531 212.210938 138.390625 212.332031 138.328125 212.410156 Z M 138.546875 212.496094 Z M 138.535156 213.660156 C 138.429688 213.660156 138.324219 213.644531 138.214844 213.613281 C 137.449219 213.386719 137.210938 212.96875 137.144531 212.660156 C 137.054688 212.226562 137.257812 211.769531 137.699219 211.398438 C 138.226562 210.957031 139.128906 210.617188 139.867188 210.914062 C 140.882812 211.320312 140.914062 211.988281 140.875 212.253906 C 140.796875 212.867188 140.171875 213.371094 139.386719 213.46875 C 139.308594 213.476562 139.230469 213.507812 139.152344 213.535156 C 138.984375 213.589844 138.773438 213.660156 138.535156 213.660156 " fill-opacity="1" fill-rule="nonzero"/><path fill="#000000" d="M 133.332031 207.230469 C 133.140625 207.230469 132.929688 207.199219 132.703125 207.164062 C 132.660156 207.15625 132.542969 207.171875 132.464844 207.175781 C 132.136719 207.207031 131.644531 207.253906 131.28125 206.890625 C 130.804688 206.417969 130.816406 205.488281 130.875 204.496094 C 130.882812 204.355469 130.890625 204.238281 130.890625 204.160156 C 130.890625 203.722656 131.171875 202.585938 131.722656 202.355469 C 131.941406 202.265625 132.261719 202.328125 132.425781 202.496094 C 132.636719 202.703125 132.835938 202.804688 133.019531 202.898438 C 133.25 203.015625 133.539062 203.164062 133.640625 203.511719 C 133.75 203.859375 133.570312 204.179688 133.515625 204.285156 C 133.359375 204.5625 133.003906 204.664062 132.722656 204.507812 C 132.5 204.382812 132.390625 204.140625 132.429688 203.902344 C 132.34375 203.859375 132.246094 203.804688 132.136719 203.738281 C 132.089844 203.882812 132.054688 204.039062 132.054688 204.160156 C 132.054688 204.253906 132.046875 204.394531 132.035156 204.558594 C 132.019531 204.863281 131.96875 205.746094 132.089844 206.03125 C 132.160156 206.03125 132.277344 206.027344 132.355469 206.019531 C 132.53125 206.003906 132.710938 205.984375 132.894531 206.015625 C 132.988281 206.03125 133.0625 206.042969 133.121094 206.050781 C 133.121094 206.023438 133.121094 205.996094 133.117188 205.96875 C 133.109375 205.800781 133.097656 205.605469 133.097656 205.375 C 133.097656 205.050781 133.359375 204.792969 133.679688 204.792969 C 134.003906 204.792969 134.265625 205.050781 134.265625 205.375 C 134.265625 205.582031 134.273438 205.757812 134.28125 205.90625 C 134.304688 206.324219 134.324219 206.722656 134.007812 207.007812 C 133.820312 207.175781 133.59375 207.230469 133.332031 207.230469 " fill-opacity="1" fill-rule="nonzero"/><path fill="#000000" d="M 132.410156 195.8125 L 132.417969 195.8125 Z M 132.453125 195.230469 C 132.84375 195.230469 133.304688 195.394531 133.835938 195.582031 C 134.246094 195.726562 135.109375 196.03125 135.3125 195.917969 C 135.382812 195.5625 134.832031 194.992188 134.464844 194.613281 C 134.15625 194.296875 133.863281 194 133.714844 193.695312 C 133.65625 193.578125 133.609375 193.4375 133.566406 193.28125 C 133.535156 193.179688 133.488281 193.011719 133.449219 192.96875 C 133.042969 192.8125 132.28125 192.578125 131.949219 192.929688 C 131.648438 193.246094 131.65625 194.0625 131.957031 194.714844 C 132.140625 195.113281 132.328125 195.234375 132.375 195.234375 C 132.402344 195.230469 132.425781 195.230469 132.453125 195.230469 Z M 135.179688 197.097656 C 134.644531 197.097656 134.039062 196.886719 133.449219 196.679688 C 133.097656 196.554688 132.613281 196.367188 132.445312 196.394531 C 132.445312 196.394531 132.441406 196.394531 132.441406 196.394531 C 131.820312 196.40625 131.269531 195.996094 130.902344 195.207031 C 130.472656 194.28125 130.351562 192.925781 131.105469 192.128906 C 131.527344 191.683594 132.355469 191.285156 133.898438 191.902344 C 134.441406 192.117188 134.59375 192.644531 134.683594 192.960938 C 134.707031 193.039062 134.726562 193.117188 134.753906 193.175781 C 134.828125 193.320312 135.078125 193.578125 135.296875 193.804688 C 135.898438 194.421875 136.644531 195.191406 136.464844 196.09375 C 136.367188 196.566406 136.097656 196.8125 135.890625 196.929688 C 135.675781 197.050781 135.433594 197.097656 135.179688 197.097656 " fill-opacity="1" fill-rule="nonzero"/><path fill="#000000" d="M 129.285156 193.160156 C 129.019531 193.160156 128.769531 192.964844 128.699219 192.707031 L 128.65625 192.554688 C 128.582031 192.304688 128.496094 192.019531 128.511719 191.695312 C 128.527344 191.421875 128.554688 190.851562 129.113281 190.832031 C 129.710938 190.832031 129.746094 191.300781 129.835938 192.039062 C 129.882812 192.382812 129.964844 193.035156 129.390625 193.152344 C 129.355469 193.15625 129.320312 193.160156 129.285156 193.160156 " fill-opacity="1" fill-rule="nonzero"/><path fill="#000000" d="M 134.125 184.703125 L 133.601562 184.964844 C 133.605469 184.964844 133.605469 184.964844 133.605469 184.964844 Z M 133.234375 189.941406 C 133.15625 189.941406 133.074219 189.933594 132.988281 189.910156 C 132.835938 189.875 132.648438 189.734375 132.566406 189.601562 C 132.40625 189.328125 132.476562 189.050781 132.527344 188.863281 C 132.535156 188.832031 132.546875 188.796875 132.550781 188.769531 C 132.546875 188.75 132.722656 184.265625 133.832031 184.003906 C 134.089844 183.945312 134.4375 184.027344 134.644531 184.445312 C 134.789062 184.734375 134.671875 185.082031 134.382812 185.222656 C 134.335938 185.25 134.28125 185.265625 134.230469 185.277344 C 134.015625 186.007812 133.785156 187.710938 133.726562 188.496094 C 133.78125 188.472656 133.839844 188.457031 133.898438 188.445312 C 134.429688 188.339844 134.519531 188.226562 134.519531 188.226562 C 134.546875 188.164062 134.511719 187.910156 134.492188 187.738281 C 134.460938 187.515625 134.425781 187.234375 134.425781 186.914062 C 134.425781 186.59375 134.6875 186.332031 135.007812 186.332031 C 135.328125 186.332031 135.589844 186.59375 135.589844 186.914062 C 135.589844 187.167969 135.621094 187.394531 135.644531 187.59375 C 135.757812 188.496094 135.722656 189.265625 134.128906 189.585938 C 134.109375 189.59375 134.039062 189.636719 133.988281 189.667969 C 133.824219 189.777344 133.5625 189.941406 133.234375 189.941406 " fill-opacity="1" fill-rule="nonzero"/><path fill="#000000" d="M 137.441406 191.144531 L 137.109375 191.144531 C 137.019531 191.144531 136.929688 191.121094 136.847656 191.082031 L 136.625 190.972656 C 136.488281 190.902344 136.386719 190.78125 136.335938 190.636719 C 136.285156 190.488281 136.296875 190.328125 136.367188 190.191406 L 136.417969 190.011719 C 136.417969 189.894531 136.453125 189.785156 136.515625 189.6875 L 136.636719 189.503906 L 136.636719 188.792969 C 136.636719 188.589844 136.742188 188.40625 136.914062 188.296875 C 137.085938 188.191406 137.304688 188.183594 137.480469 188.273438 L 137.703125 188.386719 C 137.988281 188.53125 138.105469 188.878906 137.960938 189.167969 C 137.921875 189.246094 137.867188 189.308594 137.800781 189.363281 L 137.800781 189.679688 C 137.800781 189.75 137.789062 189.816406 137.765625 189.878906 C 137.941406 189.910156 138.097656 190.019531 138.183594 190.191406 C 138.324219 190.480469 138.210938 190.828125 137.921875 190.972656 L 137.699219 191.082031 C 137.621094 191.121094 137.53125 191.144531 137.441406 191.144531 " fill-opacity="1" fill-rule="nonzero"/><path fill="#000000" d="M 137.96875 183.171875 C 137.894531 183.171875 137.820312 183.160156 137.75 183.128906 L 136.53125 182.628906 C 136.242188 182.507812 136.101562 182.183594 136.207031 181.890625 L 136.988281 179.769531 C 137.042969 179.617188 137.164062 179.492188 137.3125 179.433594 L 138.871094 178.796875 C 139.171875 178.675781 139.507812 178.820312 139.628906 179.117188 C 139.75 179.414062 139.609375 179.753906 139.3125 179.875 L 137.988281 180.414062 L 137.492188 181.765625 L 137.914062 181.9375 L 140.125 180.535156 C 140.394531 180.363281 140.757812 180.445312 140.929688 180.714844 C 141.101562 180.984375 141.023438 181.347656 140.75 181.519531 L 138.28125 183.082031 C 138.1875 183.140625 138.082031 183.171875 137.96875 183.171875 " fill-opacity="1" fill-rule="nonzero"/><path fill="#000000" d="M 137.902344 175.695312 C 137.773438 175.695312 137.648438 175.65625 137.542969 175.570312 C 137.398438 175.457031 136.121094 174.425781 135.695312 173.53125 C 135.285156 172.667969 135.441406 172.082031 135.644531 171.738281 C 136.148438 170.90625 137.320312 170.832031 137.453125 170.824219 C 137.78125 170.808594 138.046875 171.058594 138.058594 171.378906 C 138.074219 171.703125 137.824219 171.972656 137.503906 171.988281 C 137.292969 172 136.785156 172.101562 136.644531 172.339844 C 136.535156 172.523438 136.660156 172.851562 136.746094 173.027344 C 137.011719 173.585938 137.933594 174.394531 138.265625 174.660156 C 138.515625 174.859375 138.558594 175.226562 138.359375 175.476562 C 138.246094 175.621094 138.074219 175.695312 137.902344 175.695312 " fill-opacity="1" fill-rule="nonzero"/><path fill="#000000" d="M 137.597656 169.726562 C 137.523438 169.726562 137.453125 169.714844 137.382812 169.6875 L 136.144531 169.195312 C 135.878906 169.089844 135.730469 168.804688 135.792969 168.527344 C 135.902344 168.027344 136.136719 166.539062 135.890625 165.671875 C 135.722656 165.085938 135.914062 164.691406 136.105469 164.460938 C 136.742188 163.691406 138.265625 163.789062 138.566406 163.820312 C 138.882812 163.847656 139.117188 164.128906 139.089844 164.449219 C 139.0625 164.769531 138.769531 165 138.457031 164.976562 C 137.898438 164.925781 137.15625 165.011719 137 165.203125 C 136.976562 165.234375 137 165.324219 137.007812 165.351562 C 137.277344 166.300781 137.132812 167.59375 137.019531 168.289062 L 137.8125 168.605469 C 138.109375 168.726562 138.257812 169.0625 138.136719 169.363281 C 138.046875 169.589844 137.828125 169.726562 137.597656 169.726562 " fill-opacity="1" fill-rule="nonzero"/></svg>